<svg xmlns="http://www.w3.org/2000/svg" version="1.1" xmlns:xlink="http://www.w3.org/1999/xlink" xmlns:svgjs="http://svgjs.dev/svgjs" width="100%" height="100%" viewBox="0 0 1000 600"><rect width="1000" height="600" x="0" y="0" fill="#003366"/><g><rect width="333.3333333333333" height="333.3333333333333" rx="13.333333333333334" ry="13.333333333333334" y="319.62492749176914" fill="#00000" transform="matrix(0.42030551778233016,0,0,0.42030551778233016,0,95.60896399961268)" x="297.40270996093744"/><path d="M409.9595875109355 412.9127437507446L468.63421166130826 559.6419662382741L453.27585148622285 559.6419662382741Q450.60235915944867 559.6419662382741 448.9811989187452 558.3052200748871Q447.3315972703101 556.9684739115 446.50679644609255 554.9206925548219L446.50679644609255 554.9206925548219L432.79803791944215 519.5111399289304L366.95617902069614 519.5111399289304L353.2474204940458 554.9206925548219Q352.50794389302314 556.7693840573786 350.7730180213931 558.2198958516922Q349.0380921497631 559.6419662382741 346.4783654539155 559.6419662382741L346.4783654539155 559.6419662382741L331.12000527883004 559.6419662382741L389.79462942920287 412.9127437507446L409.9595875109355 412.9127437507446ZM395.5113523832625 445.5919212343987L372.47381212063425 505.176670432184L427.2519634117724 505.176670432184L404.21442314914424 445.47815560347215Q401.9675519383447 439.96052250353404 399.8344463584717 431.6556314458952L399.8344463584717 431.6556314458952Q398.69679004920613 435.86495979017786 397.6160165554038 439.39169434890124Q396.5352430616015 442.91842890762456 395.5113523832625 445.5919212343987L395.5113523832625 445.5919212343987ZM586.2678740393703 529.3234255963462L586.2678740393703 529.3234255963462Q587.9174756878056 529.3234255963462 589.2542218511926 530.6601717597332L589.2542218511926 530.6601717597332L597.0187261619301 539.1641526714935Q588.0027999110005 549.6021493090053 575.175725024031 555.4326378939915Q562.3202087293296 561.2915678867092 544.2030320042752 561.2915678867092L544.2030320042752 561.2915678867092Q528.3327264900201 561.2915678867092 515.4203273798557 555.8023761945028Q502.50792826969126 550.3131845022963 493.4066777955665 540.4440160194173Q484.30542732144175 530.5748475365383 479.2712981529416 516.7523233789614Q474.26561039217296 502.9297992213845 474.26561039217296 486.32001710610683L474.26561039217296 486.32001710610683Q474.26561039217296 469.73867639856087 479.64103645345284 455.91615224098393Q485.01646251473284 442.093628083407 494.7434239589536 432.16757678506474Q504.47038540317436 422.2415254867225 518.0369368911665 416.75233379451595Q531.6034883791588 411.29158351004116 547.9857392325832 411.29158351004116L547.9857392325832 411.29158351004116Q564.1689002318863 411.29158351004116 575.8867602173218 416.29727127080974Q587.6046202027574 421.3029590315783 596.7058706768821 429.9207055742652L596.7058706768821 429.9207055742652L590.2781125295317 439.02195604838994Q589.5386359285089 440.045846726729 588.6285108810964 440.72844051228833Q587.7183858336839 441.38259289011603 585.9550185543224 441.38259289011603L585.9550185543224 441.38259289011603Q584.646713798667 441.38259289011603 583.1393191888901 440.41558502724024Q581.6603659868447 439.4485771643645 579.6125846301666 437.9980653700509Q577.5648032734887 436.5759949834689 574.8059867235195 434.9263933350338Q572.0471701735505 433.30523309433033 568.2644629452425 431.8547213000167Q564.4533143092026 430.4326509134347 559.4476265484341 429.4656430505589Q554.4419387876655 428.47019377995156 547.8719736016567 428.47019377995156L547.8719736016567 428.47019377995156Q536.0972308007579 428.47019377995156 526.3133865410737 432.5373150855761Q516.5579836891213 436.5759949834689 509.476073163943 444.05608521689015Q502.42260404649636 451.5077340425798 498.4692483717984 462.2585861651396Q494.5443341048321 473.0094382876994 494.5443341048321 486.32001710610683L494.5443341048321 486.32001710610683Q494.5443341048321 500.05721704048887 498.4692483717984 510.8080691630487Q502.42260404649636 521.5589212856084 509.22010049435823 528.9821287035666Q516.0460383499517 536.4053361215244 525.3463786781979 540.3018089807591Q534.6751604141759 544.1698404322622 545.4260125367357 544.1698404322622L545.4260125367357 544.1698404322622Q551.9675363150129 544.1698404322622 557.2007553376345 543.4019224235078Q562.4055329525247 542.6340044147536 566.870833966392 541.0128441740501Q571.3361349802594 539.3632425256151 575.175725024031 536.8603986452307Q579.0153150678022 534.3575547648464 582.8833465193052 530.8592616138546L582.8833465193052 530.8592616138546Q584.646713798667 529.3234255963462 586.2678740393703 529.3234255963462Z " fill="#ffffff" transform="matrix(0.42030551778233016,0,0,0.42030551778233016,0,95.60896399961268)"/><path d="M776.9075152628972 414.55590388335213L823.673417164596 531.504661959389L811.4322213202347 531.504661959389Q809.3013464880681 531.504661959389 808.0092202600522 530.4392245433056Q806.694425150843 529.3737871272224 806.0370275962384 527.7416276813076L806.0370275962384 527.7416276813076L795.1106268610863 499.51887059569674L742.6321668986856 499.51887059569674L731.7057661635334 527.7416276813076Q731.1163752525086 529.2151049588695 729.7335734997197 530.3712178997259Q728.3507717469307 531.504661959389 726.3105724395372 531.504661959389L726.3105724395372 531.504661959389L714.0693765951759 531.504661959389L760.8352784968747 414.55590388335213L776.9075152628972 414.55590388335213ZM765.3917236167202 440.60244837440973L747.0299298501783 488.0937544742929L790.6901950284002 488.0937544742929L772.3284012618584 440.5117728496367Q770.5375596475907 436.11400989814393 768.8373935580961 429.49469658971157L768.8373935580961 429.49469658971157Q767.9306383103656 432.8496910063143 767.0692208250217 435.66063227427867Q766.2078033396778 438.47157354224316 765.3917236167202 440.60244837440973L765.3917236167202 440.60244837440973ZM850.6720546657706 559.5007302330671L836.1639707020831 559.5007302330671L836.1639707020831 448.8312522475637L844.8008144367158 448.8312522475637Q847.9064511601927 448.8312522475637 848.7225308831501 451.84621344626754L848.7225308831501 451.84621344626754L849.9466504675862 461.63917012175654Q855.2511686668095 455.20120786287026 862.0745019059812 451.279491416436Q868.8751662639597 447.35777497000174 877.7840365729115 447.35777497000174L877.7840365729115 447.35777497000174Q884.8793963864024 447.35777497000174 890.6599610906841 450.1007095943864Q896.4631946761591 452.84364421877103 900.5435932909462 458.1708312991875Q904.6239919057333 463.5206872607973 906.8228733814797 471.4321267972456Q909.021754857226 479.3662352148872 909.021754857226 489.63523839543467L909.021754857226 489.63523839543467Q909.021754857226 498.77079751631913 906.5735156883537 506.65956817157416Q904.1252765194815 514.525669945636 899.568831399636 520.2835657687244Q894.9897173985971 526.0414615918129 888.3477352089714 529.351118246029Q881.6830841381525 532.638106019052 873.3636047402255 532.638106019052L873.3636047402255 532.638106019052Q865.701522896903 532.638106019052 860.2609914105202 530.1218602066Q854.8431288053307 527.5829455129547 850.6720546657706 522.9358248683361L850.6720546657706 522.9358248683361L850.6720546657706 559.5007302330671ZM872.9555648787467 459.1229243093045L872.9555648787467 459.1229243093045Q865.8602050652559 459.1229243093045 860.5103491036461 462.3872432011342Q855.1604931420364 465.65156209296384 850.6720546657706 471.6134778467917L850.6720546657706 471.6134778467917L850.6720546657706 511.60138427170523Q854.6844466369779 516.9739091145083 859.4449116875628 519.1727905902546Q864.2280456193411 521.3943409471942 870.0992858483958 521.3943409471942L870.0992858483958 521.3943409471942Q881.6150774945727 521.3943409471942 887.8036820603331 513.142868192847Q894.0149555072868 504.8913954384998 894.0149555072868 489.63523839543467L894.0149555072868 489.63523839543467Q894.0149555072868 481.56511669063354 892.5868159921114 475.7618831051586Q891.1586764769359 469.98131840087683 888.4610796149377 466.2636218851819Q885.7634827529396 462.545925369487 881.8644351876986 460.82309039879914Q877.9427187412643 459.1229243093045 872.9555648787467 459.1229243093045ZM940.7808574089856 531.504661959389L926.2501045641048 531.504661959389L926.2501045641048 411.2915849915224L940.7808574089856 411.2915849915224L940.7808574089856 459.93900403226195Q946.0853756082089 454.2944526151398 952.5233378670952 450.9167893173438Q958.9839690071748 447.53912601954784 967.3714550486815 447.53912601954784L967.3714550486815 447.53912601954784Q974.1494505254667 447.53912601954784 979.3406243187236 449.7833452576807Q984.5091292307873 452.02756449581364 987.9774680533563 456.13063199179396Q991.4458068759253 460.25636836896757 993.2593173713864 466.0596019544426Q995.050158985654 471.8401666587243 995.050158985654 478.8675198286354L995.050158985654 478.8675198286354L995.050158985654 531.504661959389L980.5194061407732 531.504661959389L980.5194061407732 478.8675198286354Q980.5194061407732 469.48260301462506 976.2349875952468 464.29142922136816Q971.9505690497203 459.1229243093045 963.1323742655416 459.1229243093045L963.1323742655416 459.1229243093045Q956.6944120066553 459.1229243093045 951.0951983519196 462.2285610327814Q945.5186535783773 465.31152887506494 940.7808574089856 470.6160470742882L940.7808574089856 470.6160470742882L940.7808574089856 531.504661959389ZM1031.5243888256118 531.504661959389L1016.9936359807313 531.504661959389L1016.9936359807313 448.8312522475637L1025.3131153786585 448.8312522475637Q1027.6933479039508 448.8312522475637 1028.577434270488 449.7380074952942Q1029.4841895182185 450.6220938618314 1029.801553854924 452.84364421877103L1029.801553854924 452.84364421877103L1030.7989846274277 465.71956873654364Q1035.0380654105675 457.08272500191094 1041.2720077387144 452.23158442655296Q1047.5286189480548 447.35777497000174 1055.9161049895615 447.35777497000174L1055.9161049895615 447.35777497000174Q1059.3617749309374 447.35777497000174 1062.1273784365153 448.15118581176586Q1064.8929819420932 448.92192777233674 1067.2732144673855 450.3047295251257L1067.2732144673855 450.3047295251257L1065.391697328345 461.16312361669804Q1064.8249752985134 463.2033229240916 1062.8527826346995 463.2033229240916L1062.8527826346995 463.2033229240916Q1061.7193385750365 463.2033229240916 1059.3617749309374 462.4325809635207Q1056.9815424056446 461.63917012175654 1052.7424616225048 461.63917012175654L1052.7424616225048 461.63917012175654Q1045.148386422762 461.63917012175654 1040.0478881542786 466.0596019544426Q1034.9473898857946 470.4573649059353 1031.5243888256118 478.8675198286354L1031.5243888256118 478.8675198286354L1031.5243888256118 531.504661959389ZM1116.2379978448307 447.53912601954784L1116.2379978448307 447.53912601954784Q1125.2828814409422 447.53912601954784 1132.6049300663658 450.5540872182516Q1139.9043098105958 453.5690484169554 1145.0048080790798 459.1229243093045Q1150.1053063475638 464.67680020165363 1152.825572090755 472.5429019757154Q1155.5685067151398 480.4090037497772 1155.5685067151398 490.13395378168644L1155.5685067151398 490.13395378168644Q1155.5685067151398 499.9269104571755 1152.825572090755 507.74767446885073Q1150.1053063475638 515.5911073617193 1145.0048080790798 521.1449832540684Q1139.9043098105958 526.6988591464175 1132.6049300663658 529.6684825827348Q1125.2828814409422 532.638106019052 1116.2379978448307 532.638106019052L1116.2379978448307 532.638106019052Q1107.170445367526 532.638106019052 1099.871065623296 529.6684825827348Q1092.5716858790656 526.6988591464175 1087.4258498481954 521.1449832540684Q1082.2800138173247 515.5911073617193 1079.5144103117468 507.74767446885073Q1076.7261379249758 499.9269104571755 1076.7261379249758 490.13395378168644L1076.7261379249758 490.13395378168644Q1076.7261379249758 480.4090037497772 1079.5144103117468 472.5429019757154Q1082.2800138173247 464.67680020165363 1087.4258498481954 459.1229243093045Q1092.5716858790656 453.5690484169554 1099.871065623296 450.5540872182516Q1107.170445367526 447.53912601954784 1116.2379978448307 447.53912601954784ZM1116.2379978448307 521.3036654224212L1116.2379978448307 521.3036654224212Q1128.479193689192 521.3036654224212 1134.5091160865995 513.0975304304604Q1140.5617073652006 504.8913954384998 1140.5617073652006 490.20196042526624L1140.5617073652006 490.20196042526624Q1140.5617073652006 475.4445187684529 1134.5091160865995 467.1930460141057Q1128.479193689192 458.9642421409517 1116.2379978448307 458.9642421409517L1116.2379978448307 458.9642421409517Q1110.026724397877 458.9642421409517 1105.4702792780313 461.072448091925Q1100.8911652769925 463.2033229240916 1097.8308663159023 467.1930460141057Q1094.770567354812 471.205437985313 1093.2517523148636 477.03134045198124Q1091.7556061561081 482.85724291864943 1091.7556061561081 490.20196042526624L1091.7556061561081 490.20196042526624Q1091.7556061561081 497.546677931883 1093.2517523148636 503.349911517358Q1094.770567354812 509.153145102833 1097.8308663159023 513.0975304304604Q1100.8911652769925 517.0645846392813 1105.4702792780313 519.1727905902546Q1110.026724397877 521.3036654224212 1116.2379978448307 521.3036654224212ZM1240.350122377938 531.504661959389L1231.7132786433058 531.504661959389Q1228.607641919829 531.504661959389 1227.7915621968714 528.4897007606851L1227.7915621968714 528.4897007606851L1226.4767670876622 518.4473863920703Q1221.1722488884388 524.8853486509565 1214.3715845304605 528.7617273350043Q1207.5482512912886 532.638106019052 1198.73005650711 532.638106019052L1198.73005650711 532.638106019052Q1191.634696693619 532.638106019052 1185.854131989337 529.9178402758606Q1180.0508984038624 527.1749056514759 1175.9704997890753 521.8703874522528Q1171.8901011742882 516.5658692530295 1169.6912196985418 508.6544297165812Q1167.4923382227953 500.7429901801329 1167.4923382227953 490.4513181183921L1167.4923382227953 490.4513181183921Q1167.4923382227953 481.31575899750766 1169.9405773916674 473.44965722344585Q1172.38881656054 465.5608865681908 1176.9905994427718 459.7803218639091Q1181.592382325004 453.9770882784341 1188.2116956334366 450.6674316242179Q1194.8310089418687 447.35777497000174 1203.2184949833754 447.35777497000174L1203.2184949833754 447.35777497000174Q1210.8125701831182 447.35777497000174 1216.2077639071144 449.9420274260336Q1221.5802887499176 452.5036110008721 1225.842038414251 457.15073164549074L1225.842038414251 457.15073164549074L1225.842038414251 411.2915849915224L1240.350122377938 411.2915849915224L1240.350122377938 531.504661959389ZM1203.5585282012744 520.8956255609426L1203.5585282012744 520.8956255609426Q1210.6538880147655 520.8956255609426 1216.003743976375 517.6313066691127Q1221.353599937985 514.3669877772832 1225.842038414251 508.4050720234553L1225.842038414251 508.4050720234553L1225.842038414251 468.41716559854177Q1221.8296464430437 463.0446407557388 1217.0691813924586 460.86842816118565Q1212.2860474606805 458.7148844478258 1206.4828138752055 458.7148844478258L1206.4828138752055 458.7148844478258Q1194.8990155854485 458.7148844478258 1188.7104110196883 466.9436883209798Q1182.4991375727345 475.195161075327 1182.4991375727345 490.4513181183921L1182.4991375727345 490.4513181183921Q1182.4991375727345 498.54410870438653 1183.8819393255235 504.2793356462817Q1185.2647410783125 510.03723146937017 1187.9623379403106 513.754927985065Q1190.6599348023087 517.47262450076 1194.5816512487431 519.1727905902546Q1198.503367695177 520.8956255609426 1203.5585282012744 520.8956255609426ZM1266.396666868996 448.8312522475637L1280.9274197138766 448.8312522475637L1280.9274197138766 531.504661959389L1266.396666868996 531.504661959389L1266.396666868996 448.8312522475637ZM1284.1917386057062 422.87538328127914L1284.1917386057062 422.87538328127914Q1284.1917386057062 425.0062581134457 1283.3303211203624 426.84243749009994Q1282.4689036350183 428.6786168667541 1281.040764119843 430.1067563819296Q1279.6126246046674 431.5348958971051 1277.7311074656268 432.3509756200625Q1275.8495903265862 433.1670553430199 1273.7413843756126 433.1670553430199L1273.7413843756126 433.1670553430199Q1271.610509543446 433.1670553430199 1269.774330166792 432.3509756200625Q1267.9381507901376 431.5348958971051 1266.5100112749624 430.1067563819296Q1265.0818717597867 428.6786168667541 1264.2657920368292 426.84243749009994Q1263.4497123138722 425.0062581134457 1263.4497123138722 422.87538328127914L1263.4497123138722 422.87538328127914Q1263.4497123138722 420.7671773303058 1264.2657920368292 418.84032242887855Q1265.0818717597867 416.9361364086446 1266.5100112749624 415.5079968934691Q1267.9381507901376 414.07985737829364 1269.774330166792 413.2637776553362Q1271.610509543446 412.4476979323788 1273.7413843756126 412.4476979323788L1273.7413843756126 412.4476979323788Q1275.8495903265862 412.4476979323788 1277.7311074656268 413.2637776553362Q1279.6126246046674 414.07985737829364 1281.040764119843 415.5079968934691Q1282.4689036350183 416.9361364086446 1283.3303211203624 418.84032242887855Q1284.1917386057062 420.7671773303058 1284.1917386057062 422.87538328127914ZM1331.5923691808161 532.8194570685981L1331.5923691808161 532.8194570685981Q1321.7994125053274 532.8194570685981 1316.5402320684907 527.3335878198288Q1311.281051631654 521.8703874522528 1311.281051631654 511.60138427170523L1311.281051631654 511.60138427170523L1311.281051631654 461.00444144834523L1301.329412787812 461.00444144834523Q1300.014617678603 461.00444144834523 1299.1078624308725 460.21103060658106Q1298.2237760643352 459.4402886460102 1298.2237760643352 457.8081292000953L1298.2237760643352 457.8081292000953L1298.2237760643352 452.02756449581364L1311.7570981367126 450.3047295251257L1315.112092553315 424.7569004203199Q1315.2707747216682 423.5327808358837 1316.1775299693986 422.76203887531284Q1317.061616335936 421.99129691474195 1318.467086969918 421.99129691474195L1318.467086969918 421.99129691474195L1325.8118044765347 421.99129691474195L1325.8118044765347 450.4634116934786L1349.4781164422998 450.4634116934786L1349.4781164422998 461.00444144834523L1325.8118044765347 461.00444144834523L1325.8118044765347 510.6039534992017Q1325.8118044765347 515.8404650548451 1328.3280502889866 518.3567108672971Q1330.866964982632 520.8956255609426 1334.8566880726462 520.8956255609426L1334.8566880726462 520.8956255609426Q1337.1462450731656 520.8956255609426 1338.8237422814668 520.2835657687244Q1340.501239489768 519.6715059765063 1341.7253590742043 518.9461017783219Q1342.9494786586406 518.1980286989444 1343.7882272627912 517.5859689067263Q1344.649644748135 516.9739091145083 1345.3070423027398 516.9739091145083L1345.3070423027398 516.9739091145083Q1346.4404863624027 516.9739091145083 1347.347241610133 518.3567108672971L1347.347241610133 518.3567108672971L1351.586322393273 525.2933885124353Q1347.8459569963848 528.8070650973908 1342.5414387971618 530.8019266423978Q1337.2369205979385 532.8194570685981 1331.5923691808161 532.8194570685981ZM1400.1430659092398 447.53912601954784L1400.1430659092398 447.53912601954784Q1407.5784589406294 447.53912601954784 1413.857739031163 450.0100340696133Q1420.1370191216965 452.5036110008721 1424.7161331227353 457.1960694078773Q1429.272578242581 461.8885278148824 1431.8568306986126 468.77986769763396Q1434.4184142734512 475.6938764615788 1434.4184142734512 484.4894023645643L1434.4184142734512 484.4894023645643Q1434.4184142734512 487.9350723059401 1433.693010075267 489.06851636560316Q1432.9449369958893 490.20196042526624 1430.9047376884955 490.20196042526624L1430.9047376884955 490.20196042526624L1375.9100319136428 490.20196042526624Q1376.0687140819955 498.04539331813476 1378.0409067458095 503.8486269036097Q1379.99043052843 509.62919160789147 1383.4134315886126 513.5055702919392Q1386.836432648795 517.3819489759869 1391.5742288181868 519.3088038774142Q1396.3120249875783 521.2129898976482 1402.1832652166331 521.2129898976482L1402.1832652166331 521.2129898976482Q1407.6464655842092 521.2129898976482 1411.6135197930298 519.9662014320188Q1415.580574001851 518.6967440851961 1418.4368530322017 517.2232668076341Q1421.2931320625526 515.7497895300721 1423.1973180827868 514.4803321832494Q1425.1241729842136 513.23354371762 1426.506974737003 513.23354371762L1426.506974737003 513.23354371762Q1428.2978163512707 513.23354371762 1429.272578242581 514.616345470409L1429.272578242581 514.616345470409L1433.352976857368 519.9208636696322Q1430.678048876563 523.1851825614619 1426.9150145984818 525.5880839679477Q1423.1519803204 527.9909853744334 1418.8675617748736 529.5551381767684Q1414.5831432293471 531.0966220979102 1410.0266981095015 531.8673640584811Q1405.4475841084627 532.638106019052 1400.9591456321969 532.638106019052L1400.9591456321969 532.638106019052Q1392.390308541144 532.638106019052 1385.1816043216868 529.7591581075078Q1377.9502312210366 526.8575413147703 1372.6910507842 521.2583276600346Q1367.4318703473632 515.6817828864923 1364.484915792239 507.4303101321451Q1361.5379612371153 499.17883737779783 1361.5379612371153 488.5017943357716L1361.5379612371153 488.5017943357716Q1361.5379612371153 479.8422817199457 1364.1902203367267 472.33888204497606Q1366.8424794363382 464.83548237000645 1371.8296332988557 459.3269442400439Q1376.8167871613732 453.8184061100813 1383.980153618444 450.6674316242179Q1391.166188956708 447.53912601954784 1400.1430659092398 447.53912601954784ZM1400.4830991271388 458.2161690615741L1400.4830991271388 458.2161690615741Q1389.9420693722718 458.2161690615741 1383.9121469748643 464.29142922136816Q1377.8595556962632 470.38935826235553 1376.4087472998945 481.15707682915485L1376.4087472998945 481.15707682915485L1421.3611387061324 481.15707682915485Q1421.3611387061324 476.1019163230575 1419.9783369533434 471.8855044211108Q1418.5955352005544 467.6917614003574 1415.8979383385563 464.63146243926707Q1413.2003414765582 461.5711634781768 1409.3239627925104 459.89366626987544Q1405.4475841084627 458.2161690615741 1400.4830991271388 458.2161690615741ZM1569.1622440861984 507.33963460737203L1569.1622440861984 507.33963460737203Q1570.4543703142144 507.33963460737203 1571.5198077302975 508.4050720234553L1571.5198077302975 508.4050720234553L1577.7310811772513 515.1830675002406Q1570.5450458389873 523.5025468981676 1560.2987115396331 528.1496675427862Q1550.052377240279 532.8194570685981 1535.6122999201712 532.8194570685981L1535.6122999201712 532.8194570685981Q1522.963064214331 532.8194570685981 1512.6940610337838 528.4443629982986Q1502.402388972043 524.0692689279991 1495.1483469901991 516.2031671539373Q1487.8716361271622 508.3370653798755 1483.881913037148 497.3199891199504Q1479.8695210659407 486.30291286002523 1479.8695210659407 473.06428624316044L1479.8695210659407 473.06428624316044Q1479.8695210659407 459.8483285074889 1484.1539396114672 448.8312522475637Q1488.4383581569937 437.8141759876386 1496.1911155250891 429.90273645119026Q1503.9438728931846 421.99129691474195 1514.7569292223707 417.61620284444245Q1525.5699855515563 413.2637776553362 1538.6272611188751 413.2637776553362L1538.6272611188751 413.2637776553362Q1551.5258545178408 413.2637776553362 1560.8654335694646 417.25350074535027Q1570.227681502282 421.2432238353643 1577.4817234841253 428.1118948369226L1577.4817234841253 428.1118948369226L1572.335887453255 435.36593681876633Q1571.7691654234236 436.1820165417237 1571.043761225239 436.726069690362Q1570.2956881458613 437.247453957807 1568.9128863930723 437.247453957807L1568.9128863930723 437.247453957807Q1567.8474489769892 437.247453957807 1566.6686671549396 436.4767119972361Q1565.48988533289 435.70597003666524 1563.857725886975 434.5498570958089Q1562.2255664410604 433.4164130361458 1560.026684965314 432.1016179269366Q1557.8051346083744 430.80949169892074 1554.7901734096704 429.6533787580644Q1551.7752122109669 428.5199346984013 1547.7854891209527 427.7491927378304Q1543.7730971497454 426.95578189606624 1538.5592544752953 426.95578189606624L1538.5592544752953 426.95578189606624Q1529.1743376612849 426.95578189606624 1521.3762425308028 430.19743190670266Q1513.578147400321 433.4164130361458 1507.9562648643919 439.37832878997364Q1502.31171344727 445.3175756626082 1499.1834078425995 453.8864127536611Q1496.0324333567364 462.455249844714 1496.0324333567364 473.06428624316044L1496.0324333567364 473.06428624316044Q1496.0324333567364 484.0133558595058 1499.1834078425995 492.5821929505587Q1502.31171344727 501.1510300416116 1507.7522449336525 507.0676080330529Q1513.1701075388423 512.9841860244942 1520.605500570232 516.0898227479711Q1528.0182247204284 519.1727905902546 1536.5870618114814 519.1727905902546L1536.5870618114814 519.1727905902546Q1541.823573367125 519.1727905902546 1545.9719786254918 518.5607307980365Q1550.1430527650518 517.9486710058185 1553.7020671123942 516.6565447778025Q1557.238412578543 515.3417496685934 1560.2987115396331 513.3468881235864Q1563.3590105007233 511.35202657857934 1566.4646472242002 508.56375419180813L1566.4646472242002 508.56375419180813Q1567.8474489769892 507.33963460737203 1569.1622440861984 507.33963460737203ZM1597.8837165580608 411.2915849915224L1612.4144694029414 411.2915849915224L1612.4144694029414 531.504661959389L1597.8837165580608 531.504661959389L1597.8837165580608 411.2915849915224ZM1671.4895737925813 447.53912601954784L1671.4895737925813 447.53912601954784Q1680.5571262698859 447.53912601954784 1687.8565060141163 450.5540872182516Q1695.1558857583468 453.5690484169554 1700.2563840268303 459.1229243093045Q1705.3568822953143 464.67680020165363 1708.0998169196992 472.5429019757154Q1710.8200826628904 480.4090037497772 1710.8200826628904 490.13395378168644L1710.8200826628904 490.13395378168644Q1710.8200826628904 499.9269104571755 1708.0998169196992 507.74767446885073Q1705.3568822953143 515.5911073617193 1700.2563840268303 521.1449832540684Q1695.1558857583468 526.6988591464175 1687.8565060141163 529.6684825827348Q1680.5571262698859 532.638106019052 1671.4895737925813 532.638106019052L1671.4895737925813 532.638106019052Q1662.4446901964702 532.638106019052 1655.1226415710466 529.6684825827348Q1647.8232618268162 526.6988591464175 1642.677425795946 521.1449832540684Q1637.5542586462689 515.5911073617193 1634.7659862594978 507.74767446885073Q1632.00038275392 499.9269104571755 1632.00038275392 490.13395378168644L1632.00038275392 490.13395378168644Q1632.00038275392 480.4090037497772 1634.7659862594978 472.5429019757154Q1637.5542586462689 464.67680020165363 1642.677425795946 459.1229243093045Q1647.8232618268162 453.5690484169554 1655.1226415710466 450.5540872182516Q1662.4446901964702 447.53912601954784 1671.4895737925813 447.53912601954784ZM1671.4895737925813 521.3036654224212L1671.4895737925813 521.3036654224212Q1683.730769636943 521.3036654224212 1689.7833609155437 513.0975304304604Q1695.8132833129512 504.8913954384998 1695.8132833129512 490.20196042526624L1695.8132833129512 490.20196042526624Q1695.8132833129512 475.4445187684529 1689.7833609155437 467.1930460141057Q1683.730769636943 458.9642421409517 1671.4895737925813 458.9642421409517L1671.4895737925813 458.9642421409517Q1665.300969226821 458.9642421409517 1660.7218552257823 461.072448091925Q1656.142741224743 463.2033229240916 1653.0824422636529 467.1930460141057Q1650.0221433025627 471.205437985313 1648.5259971438072 477.03134045198124Q1647.0071821038587 482.85724291864943 1647.0071821038587 490.20196042526624L1647.0071821038587 490.20196042526624Q1647.0071821038587 497.546677931883 1648.5259971438072 503.349911517358Q1650.0221433025627 509.153145102833 1653.0824422636529 513.0975304304604Q1656.142741224743 517.0645846392813 1660.7218552257823 519.1727905902546Q1665.300969226821 521.3036654224212 1671.4895737925813 521.3036654224212ZM1753.845619167701 532.8194570685981L1753.845619167701 532.8194570685981Q1744.0526624922122 532.8194570685981 1738.770813174182 527.3335878198288Q1733.5116327373453 521.8703874522528 1733.5116327373453 511.60138427170523L1733.5116327373453 511.60138427170523L1733.5116327373453 461.00444144834523L1723.5599938935034 461.00444144834523Q1722.2451987842942 461.00444144834523 1721.3611124177569 460.21103060658106Q1720.4543571700265 459.4402886460102 1720.4543571700265 457.8081292000953L1720.4543571700265 457.8081292000953L1720.4543571700265 452.02756449581364L1734.010348123597 450.3047295251257L1737.3426736590063 424.7569004203199Q1737.5240247085526 423.5327808358837 1738.40811107509 422.76203887531284Q1739.3148663228203 421.99129691474195 1740.6976680756093 421.99129691474195L1740.6976680756093 421.99129691474195L1748.042385582226 421.99129691474195L1748.042385582226 450.4634116934786L1771.7086975479915 450.4634116934786L1771.7086975479915 461.00444144834523L1748.042385582226 461.00444144834523L1748.042385582226 510.6039534992017Q1748.042385582226 515.8404650548451 1750.5813002758714 518.3567108672971Q1753.0975460883233 520.8956255609426 1757.1099380595306 520.8956255609426L1757.1099380595306 520.8956255609426Q1759.3768261788568 520.8956255609426 1761.054323387158 520.2835657687244Q1762.7318205954593 519.6715059765063 1763.9559401798956 518.9461017783219Q1765.1800597643319 518.1980286989444 1766.041477249676 517.5859689067263Q1766.9028947350198 516.9739091145083 1767.537623408431 516.9739091145083L1767.537623408431 516.9739091145083Q1768.693736349287 516.9739091145083 1769.5778227158248 518.3567108672971L1769.5778227158248 518.3567108672971L1773.8395723801577 525.2933885124353Q1770.0765381020765 528.8070650973908 1764.7720199028531 530.8019266423978Q1759.4675017036298 532.8194570685981 1753.845619167701 532.8194570685981ZM1804.1932042979352 531.504661959389L1789.6624514530545 531.504661959389L1789.6624514530545 411.2915849915224L1804.1932042979352 411.2915849915224L1804.1932042979352 459.93900403226195Q1809.497722497158 454.2944526151398 1815.9356847560448 450.9167893173438Q1822.3963158961242 447.53912601954784 1830.7838019376309 447.53912601954784L1830.7838019376309 447.53912601954784Q1837.5617974144166 447.53912601954784 1842.752971207673 449.7833452576807Q1847.9214761197368 452.02756449581364 1851.3898149423057 456.13063199179396Q1854.8581537648747 460.25636836896757 1856.671664260336 466.0596019544426Q1858.4625058746033 471.8401666587243 1858.4625058746033 478.8675198286354L1858.4625058746033 478.8675198286354L1858.4625058746033 531.504661959389L1843.9317530297226 531.504661959389L1843.9317530297226 478.8675198286354Q1843.9317530297226 469.48260301462506 1839.6473344841966 464.29142922136816Q1835.36291593867 459.1229243093045 1826.544721154491 459.1229243093045L1826.544721154491 459.1229243093045Q1820.1067588956048 459.1229243093045 1814.5075452408691 462.2285610327814Q1808.931000467327 465.31152887506494 1804.1932042979352 470.6160470742882L1804.1932042979352 470.6160470742882L1804.1932042979352 531.504661959389ZM1882.038142315596 448.8312522475637L1896.5688951604761 448.8312522475637L1896.5688951604761 531.504661959389L1882.038142315596 531.504661959389L1882.038142315596 448.8312522475637ZM1899.8332140523062 422.87538328127914L1899.8332140523062 422.87538328127914Q1899.8332140523062 425.0062581134457 1898.971796566962 426.84243749009994Q1898.1103790816182 428.6786168667541 1896.6822395664426 430.1067563819296Q1895.254100051267 431.5348958971051 1893.39525179342 432.3509756200625Q1891.5137346543788 433.1670553430199 1889.3828598222126 433.1670553430199L1889.3828598222126 433.1670553430199Q1887.274653871239 433.1670553430199 1885.438474494585 432.3509756200625Q1883.6022951179307 431.5348958971051 1882.174155602755 430.1067563819296Q1880.7460160875798 428.6786168667541 1879.9299363646223 426.84243749009994Q1879.1138566416648 425.0062581134457 1879.1138566416648 422.87538328127914L1879.1138566416648 422.87538328127914Q1879.1138566416648 420.7671773303058 1879.9299363646223 418.84032242887855Q1880.7460160875798 416.9361364086446 1882.174155602755 415.5079968934691Q1883.6022951179307 414.07985737829364 1885.438474494585 413.2637776553362Q1887.274653871239 412.4476979323788 1889.3828598222126 412.4476979323788L1889.3828598222126 412.4476979323788Q1891.5137346543788 412.4476979323788 1893.39525179342 413.2637776553362Q1895.254100051267 414.07985737829364 1896.6822395664426 415.5079968934691Q1898.1103790816182 416.9361364086446 1898.971796566962 418.84032242887855Q1899.8332140523062 420.7671773303058 1899.8332140523062 422.87538328127914ZM1936.7154837537428 531.504661959389L1922.184730908862 531.504661959389L1922.184730908862 448.8312522475637L1930.844243524688 448.8312522475637Q1933.9498802481648 448.8312522475637 1934.7659599711224 451.84621344626754L1934.7659599711224 451.84621344626754L1935.8994040307853 460.82309039879914Q1941.2945977547815 454.8838435261646 1947.9365799444072 451.2114847728562Q1954.6012310152264 447.53912601954784 1963.328750274632 447.53912601954784L1963.328750274632 447.53912601954784Q1970.1067457514173 447.53912601954784 1975.2752506634806 449.7833452576807Q1980.4664244567375 452.02756449581364 1983.9347632793065 456.13063199179396Q1987.403102101876 460.25636836896757 1989.1939437161436 466.0596019544426Q1990.984785330411 471.8401666587243 1990.984785330411 478.8675198286354L1990.984785330411 478.8675198286354L1990.984785330411 531.504661959389L1976.4540324855307 531.504661959389L1976.4540324855307 478.8675198286354Q1976.4540324855307 469.48260301462506 1972.1696139400042 464.29142922136816Q1967.8851953944777 459.1229243093045 1959.0896694914918 459.1229243093045L1959.0896694914918 459.1229243093045Q1952.6290383514124 459.1229243093045 1947.0524935778699 462.2285610327814Q1941.4532799231342 465.31152887506494 1936.7154837537428 470.6160470742882L1936.7154837537428 470.6160470742882L1936.7154837537428 531.504661959389ZM2040.7656484308136 447.44845049477476L2040.7656484308136 447.44845049477476Q2046.1608421548099 447.44845049477476 2050.853300561815 448.62723231682435Q2055.5457589688203 449.806014138874 2059.3767998904814 452.0955711393934L2059.3767998904814 452.0955711393934L2081.8189922718107 452.0955711393934L2081.8189922718107 457.4907648633897Q2081.8189922718107 460.18836172538784 2078.395991211628 460.9137659235722L2078.395991211628 460.9137659235722L2069.011074397618 462.2285610327814Q2071.7766779031954 467.5330792320046 2071.7766779031954 474.06171701566393L2071.7766779031954 474.06171701566393Q2071.7766779031954 480.09163941307156 2069.464452021483 485.03345551320257Q2067.129557258577 489.9752716133336 2063.0038208814035 493.4662793170959Q2058.8780845042297 496.9799559020514 2053.2108642059143 498.86147304109215Q2047.5436439075988 500.7429901801329 2040.7656484308136 500.7429901801329L2040.7656484308136 500.7429901801329Q2034.9850837265317 500.7429901801329 2029.8392476956615 499.3601884273439L2029.8392476956615 499.3601884273439Q2027.2323263584362 500.9923478732588 2025.8721934868408 502.85119613110624Q2024.5347294964386 504.732713270147 2024.5347294964386 506.52355488441464L2024.5347294964386 506.52355488441464Q2024.5347294964386 509.47050943953866 2026.8922931405377 510.98932447948715Q2029.27252566583 512.4854706382424 2033.1715732310709 513.142868192847Q2037.0932896775053 513.8002657474516 2042.0804435400228 513.9589479158044Q2047.0449285213472 514.1176300841573 2052.236102314604 514.4803321832494Q2057.427276107861 514.8657031635348 2062.3917610891854 515.7497895300721Q2067.378914951703 516.6565447778025 2071.3006313981373 518.6967440851961Q2075.199678963378 520.7369433925896 2077.5799114886704 524.3186266211251Q2079.9374751327696 527.9229787308536 2079.9374751327696 533.6355367915555L2079.9374751327696 533.6355367915555Q2079.9374751327696 538.9400549907788 2077.285216033158 543.9045399721031Q2074.632956933546 548.8916938346206 2069.6684719522223 552.7680725186683Q2064.6813180897047 556.6444512027161 2057.4952827514408 558.9566770844287Q2050.3092474131768 561.2915718473348 2041.2643638170653 561.2915718473348L2041.2643638170653 561.2915718473348Q2032.196811339761 561.2915718473348 2025.3961469817823 559.5007302330671Q2018.5728137426108 557.7098886187994 2014.084375266345 554.6722585389024Q2009.5959367900791 551.6572973401985 2007.351717551946 547.712912012571Q2005.1074983138133 543.7458578037503 2005.1074983138133 539.4161014958372L2005.1074983138133 539.4161014958372Q2005.1074983138133 533.2955035736566 2008.983876997861 529.0110850281302Q2012.8602556819083 524.7266664826037 2019.638251158694 522.2104206701517L2019.638251158694 522.2104206701517Q2016.1245745737383 520.5782612242368 2014.0390375039583 517.8353265998521Q2011.9535004341783 515.0923919754675 2011.9535004341783 510.5359468556219L2011.9535004341783 510.5359468556219Q2011.9535004341783 508.7451052413543 2012.610897988783 506.81825033992703Q2013.2682955433875 504.8913954384998 2014.6057595337898 503.03254718065233Q2015.9658924053856 501.1510300416116 2017.915416188006 499.4281950709237Q2019.8876088518196 497.7280289814291 2022.4945301890448 496.4132338722199L2022.4945301890448 496.4132338722199Q2016.373932266864 492.99023281203745 2012.9055934442954 487.323012513722Q2009.437254621726 481.63312333421334 2009.437254621726 474.06171701566393L2009.437254621726 474.06171701566393Q2009.437254621726 468.0091257370631 2011.7494805034385 463.067309636932Q2014.084375266345 458.1481624179943 2018.2554494059045 454.6798235954252Q2022.4038546642719 451.2114847728562 2028.1617504873602 449.3299676338155Q2033.9196463104486 447.44845049477476 2040.7656484308136 447.44845049477476ZM2066.5628352287454 535.9931004356547L2066.5628352287454 535.9931004356547Q2066.5628352287454 532.8874637121779 2064.8400002580574 531.0059465731372Q2063.139834168563 529.1470983152897 2060.192879613439 528.126998661593Q2057.245925058315 527.1068990078961 2053.4148841366537 526.6081836216445Q2049.5838432149926 526.1094682353927 2045.3447624318524 525.9054483046533Q2041.1056816487126 525.7014283739139 2036.6852498160265 525.4747395619813Q2032.2874868645335 525.2253818688555 2028.2750948933262 524.5679843142509L2028.2750948933262 524.5679843142509Q2023.6279742487077 526.7668657899973 2020.7263574559702 529.9631780382472Q2017.8474095444262 533.1368214053037 2017.8474095444262 537.5345843567966L2017.8474095444262 537.5345843567966Q2017.8474095444262 540.3228567435677 2019.2755490596014 542.7257581500535Q2020.703688574777 545.1286595565392 2023.6279742487077 546.8968322896136Q2026.5749288038319 548.6423361414948 2031.018029517711 549.6624357951915Q2035.4611302315902 550.6825354488883 2041.5137215101913 550.6825354488883L2041.5137215101913 550.6825354488883Q2047.3849617392461 550.6825354488883 2052.0320823838647 549.617098032805Q2056.6792030284832 548.5516606167217 2059.898184157926 546.6021368341012Q2063.139834168563 544.6526130514807 2064.8400002580574 541.9550161894825Q2066.5628352287454 539.2574193274844 2066.5628352287454 535.9931004356547ZM2040.7656484308136 491.1087156729967L2040.7656484308136 491.1087156729967Q2045.1860802634997 491.1087156729967 2048.5637435612957 489.88459608856056Q2051.941406859092 488.6604765041244 2054.2309638596107 486.46159502837804Q2056.5205208601305 484.2627135526317 2057.6539649197935 481.20241459154136Q2058.81007786065 478.14211563045103 2058.81007786065 474.46975687714263L2058.81007786065 474.46975687714263Q2058.81007786065 466.8756816774 2054.1856260972245 462.3872432011342Q2049.5838432149926 457.8988047248684 2040.7656484308136 457.8988047248684L2040.7656484308136 457.8988047248684Q2032.038129171408 457.8988047248684 2027.4363462891756 462.3872432011342Q2022.8118945257506 466.8756816774 2022.8118945257506 474.46975687714263L2022.8118945257506 474.46975687714263Q2022.8118945257506 478.14211563045103 2023.9906763478002 481.20241459154136Q2025.192127051043 484.2627135526317 2027.4590151703692 486.46159502837804Q2029.7485721708886 488.6604765041244 2033.103566587491 489.88459608856056Q2036.435892122901 491.1087156729967 2040.7656484308136 491.1087156729967Z " fill="#ffffff" transform="matrix(0.42030551778233016,0,0,0.42030551778233016,0,95.60896399961268)"/></g></svg>